<?xml version="1.0" standalone="no"?><svg xmlns="http://www.w3.org/2000/svg" viewBox="0 0 1440 320"><path fill="#ffdeeb" fill-opacity="1" d="M0,224L24,192C48,160,96,96,144,64C192,32,240,32,288,48C336,64,384,96,432,112C480,128,528,128,576,117.3C624,107,672,85,720,69.3C768,53,816,43,864,32C912,21,960,11,1008,10.7C1056,11,1104,21,1152,42.7C1200,64,1248,96,1296,128C1344,160,1392,192,1416,208L1440,224L1440,320L1416,320C1392,320,1344,320,1296,320C1248,320,1200,320,1152,320C1104,320,1056,320,1008,320C960,320,912,320,864,320C816,320,768,320,720,320C672,320,624,320,576,320C528,320,480,320,432,320C384,320,336,320,288,320C240,320,192,320,144,320C96,320,48,320,24,320L0,320Z"></path></svg>